<?xml version="1.0" standalone="no"?>
<!DOCTYPE svg PUBLIC "-//W3C//DTD SVG 20010904//EN"
 "http://www.w3.org/TR/2001/REC-SVG-20010904/DTD/svg10.dtd">
<svg version="1.0" xmlns="http://www.w3.org/2000/svg"
 width="512.000000pt" height="512.000000pt" viewBox="0 0 512.000000 512.000000"
 preserveAspectRatio="xMidYMid meet">
<metadata>
Created by potrace 1.11, written by Peter Selinger 2001-2013
</metadata>
<g transform="translate(0.000000,512.000000) scale(0.100000,-0.100000)"
fill="#000000" stroke="none">
<path d="M2361 4050 c-175 -46 -286 -163 -336 -355 -19 -76 -19 -250 0 -333
62 -262 281 -404 575 -371 123 14 202 50 281 128 107 107 149 223 149 411 0
176 -46 306 -140 400 -121 121 -336 170 -529 120z m256 -163 c146 -54 225
-231 195 -437 -20 -137 -70 -218 -166 -268 -42 -21 -64 -26 -126 -26 -87 0
-130 16 -189 69 -116 105 -145 351 -62 520 35 71 83 117 146 139 48 17 158 19
202 3z"/>
<path d="M995 4025 c-33 -32 -34 -93 -4 -121 18 -16 42 -20 168 -24 l146 -5 5
-417 c5 -403 6 -418 25 -438 51 -51 137 -41 167 20 16 32 18 74 18 438 l0 402
138 0 c89 0 146 5 162 13 52 26 48 121 -6 146 -17 7 -145 11 -410 11 l-385 0
-24 -25z"/>
<path d="M3363 4040 c-12 -5 -30 -21 -40 -37 -17 -25 -18 -62 -21 -468 -2
-380 -1 -446 13 -481 37 -98 166 -88 195 15 5 20 10 104 10 187 l0 151 158 6
c103 3 175 11 209 21 79 25 142 73 177 136 29 52 31 61 31 165 0 103 -2 113
-30 164 -35 62 -81 104 -144 128 -38 14 -89 17 -291 20 -135 1 -255 -2 -267
-7z m455 -173 c69 -37 92 -157 43 -225 -33 -47 -90 -64 -223 -70 l-118 -4 0
162 0 162 133 -4 c103 -3 139 -7 165 -21z"/>
<path d="M401 2362 c-19 -9 -44 -30 -55 -45 -20 -27 -21 -42 -24 -440 -2 -227
-1 -436 3 -465 9 -70 43 -112 92 -112 19 0 43 5 53 10 42 23 45 41 50 390 l5
334 85 -129 c400 -615 392 -605 477 -605 33 0 50 7 75 29 l33 29 3 467 c2 412
1 470 -14 500 -29 62 -124 69 -157 11 -8 -15 -13 -121 -17 -361 l-5 -340 -239
359 c-199 299 -244 361 -272 372 -43 18 -52 18 -93 -4z"/>
<path d="M2564 2371 c-29 -13 -64 -59 -64 -86 0 -26 192 -814 216 -887 29 -90
115 -125 190 -79 42 26 54 59 159 447 74 270 105 369 105 331 0 -21 184 -688
200 -724 44 -100 188 -97 229 4 15 38 210 826 218 878 7 56 -16 100 -61 115
-44 14 -82 4 -105 -29 -12 -17 -47 -152 -96 -366 -42 -187 -78 -342 -81 -344
-5 -6 -6 -3 -99 338 -47 173 -93 329 -103 345 -36 63 -126 82 -188 41 -38 -25
-53 -67 -145 -410 -46 -173 -87 -315 -90 -315 -3 0 -38 147 -79 328 -74 331
-88 379 -113 400 -20 17 -68 23 -93 13z"/>
<path d="M4321 2369 c-126 -21 -242 -106 -269 -197 -28 -93 -9 -189 50 -257
51 -58 131 -95 288 -136 69 -17 145 -41 169 -52 110 -51 108 -193 -4 -251 -48
-25 -166 -34 -219 -16 -49 16 -94 64 -123 130 -35 78 -58 100 -105 100 -84 0
-112 -82 -64 -187 62 -131 196 -203 383 -203 258 0 417 126 417 330 1 174 -82
245 -379 324 -187 50 -235 81 -235 153 0 45 49 99 103 114 23 6 72 9 109 7 80
-4 108 -22 155 -94 62 -94 72 -104 110 -104 25 0 43 8 64 29 36 36 38 82 8
146 -61 130 -252 198 -458 164z"/>
<path d="M1583 2345 c-59 -25 -58 -19 -58 -505 0 -478 -1 -473 52 -508 24 -15
61 -17 323 -20 162 -2 315 -1 339 3 82 12 115 76 67 132 l-24 28 -276 3 -276
3 0 149 0 150 230 0 c178 0 239 3 265 14 37 16 52 48 41 92 -12 47 -51 54
-306 54 l-230 0 0 130 0 130 250 0 c278 0 314 6 326 56 9 37 -6 76 -36 91 -38
19 -643 18 -687 -2z"/>
</g>
</svg>
